# xmcd CD database file
#
# Track frame offsets:
#	150
#	6830
#	95530
#	97875
#	186300
#
# Disc length: 2574 seconds
#
# Revision: 0
# Processed by: cddbd v1.5.1PL0 Copyright (c) Steve Scherf et al.
# Submitted via: CDex 1.51
#
DISCID=340a0c05
DTITLE=炎の転校生 - 炎の転校生CD SPECIAL_DX_(2)
DYEAR=1991
DGENRE=アニメ
TTITLE0=炎の転校生(OLAヴァージョン)
TTITLE1=第1話「鷹は舞い降りた!!」
TTITLE2=予告ナレーション
TTITLE3=第2話「うなれ!必殺国電パンチ!!」
TTITLE4=夢みるキ・モ・チ~ドリーミング・ハート(OLAヴァージョン) ※〈限定仕様〉
EXTD=YEAR: 1991
EXTT0=
EXTT1=
EXTT2=
EXTT3=
EXTT4=
PLAYORDER=
